<svg width="22" height="15" viewBox="0 0 22 15" fill="none" xmlns="http://www.w3.org/2000/svg">
<path d="M0.846154 0C0.378836 0 0 0.373083 0 0.833333C0 1.29354 0.378836 1.66667 0.846154 1.66667H21.1538C21.6212 1.66667 22 1.29354 22 0.833333C22 0.373083 21.6212 0 21.1538 0H0.846154ZM0.846154 6.66667C0.378836 6.66667 0 7.03975 0 7.5C0 7.96021 0.378836 8.33333 0.846154 8.33333H21.1538C21.6212 8.33333 22 7.96021 22 7.5C22 7.03975 21.6212 6.66667 21.1538 6.66667H0.846154ZM0.846154 13.3333C0.378836 13.3333 0 13.7064 0 14.1667C0 14.6269 0.378836 15 0.846154 15H21.1538C21.6212 15 22 14.6269 22 14.1667C22 13.7064 21.6212 13.3333 21.1538 13.3333H0.846154Z" fill="#002794"/>
</svg>
