<?xml version="1.0" encoding="UTF-8"?>
<svg id="Layer_2" data-name="Layer 2" xmlns="http://www.w3.org/2000/svg" viewBox="0 0 464.1 331.45">
  <defs>
    <style>
      .cls-1 {
        fill: white;
        stroke-width: 0px;
      }
    </style>
  </defs>
  <g id="Layer_1-2" data-name="Layer 1">
    <g>
      <g>
        <path class="cls-1" d="M362.15,208.84v78.32h-41.39c-13.96,0-25.27-11.32-25.27-25.27v-53.05h10.92v50.32c0,9.43,7.65,17.08,17.08,17.08h27.76v-62.14c0-2.96,2.31-5.26,5.27-5.26h5.63Z"/>
        <path class="cls-1" d="M374.26,208.84v122.61l7.2-3.17c2.28-1,3.72-3.24,3.72-5.79l.02-35.33h34.82c11.56,0,20.92-9.37,20.92-20.93v-36.47c0-11.56-9.38-20.93-20.94-20.93h-45.73ZM416.71,276.25h-31.52v-56.49s31.51,0,31.51,0c7.36,0,13.32,5.96,13.32,13.32v29.84c0,7.36-5.96,13.32-13.31,13.32Z"/>
        <path class="cls-1" d="M462.98,188.62v49.1s0,.06,0,.09l-1.73,20.42c-.05.8-.71,1.43-1.52,1.43h-5.46c-.8,0-1.47-.62-1.51-1.43l-1.68-20.42s0-.06,0-.09v-49.1c0-.84.68-1.52,1.52-1.52h8.87c.84,0,1.52.68,1.52,1.52Z"/>
        <ellipse class="cls-1" cx="457.03" cy="280.4" rx="7.06" ry="7.08"/>
      </g>
      <g>
        <path class="cls-1" d="M100.19,220.72c18.45-4.31,30.67-16.26,30.67-49.34,0-51.31-29.93-51.78-66.86-51.78H0v167.57h39.56v-62.97s4.42-1,10.72-.93c6.03.06,11.59,3.29,14.64,8.49l27.66,46.98c3.08,5.23,8.7,8.45,14.77,8.45h31.96l-39.12-66.44ZM64,192.94c-20.15,0-24.45.87-24.45.87v-43.99h24.45c15.98,0,28.92,0,28.92,21.56s-12.94,21.57-28.92,21.57Z"/>
        <path class="cls-1" d="M266.43,119.6l-3.03,16.22c-1.51,8.11-8.6,14-16.85,14h-39.58c-14.52,0-22.75,6.03-22.75,16.03,0,35.77,86.9,2.09,86.9,67.81,0,36.81-15.49,53.5-57.98,53.5-12.74,0-68.78,0-68.78,0l2.97-16.17c1.49-8.14,8.59-14.05,16.86-14.05h43.58c3.99,0,23.79,0,23.79-18.08,0-35.49-86.9-3.31-86.9-66.86,0-37.31,17.62-52.41,58.2-52.41,17.61,0,63.57,0,63.57,0Z"/>
      </g>
      <g>
        <path class="cls-1" d="M335.31,119.42c0,13.6-11.02,24.62-24.62,24.62h-15.21v-12.31c0-6.79,5.51-12.3,12.3-12.3h12.3c8.4,0,15.21-6.81,15.21-15.21,0-13.59,11.01-24.6,24.6-24.6l67.22.03c-18.14,15.33-41.6,24.58-67.22,24.58h-9.4c-8.4,0-15.21,6.81-15.21,15.21h.02Z"/>
        <path class="cls-1" d="M295.49,91.92c0-6.79,5.51-12.3,12.3-12.3h12.24c8.49,0,15.19-6.94,15.27-15.43.12-13.48,11.09-24.38,24.6-24.38l96.32.02c-.04.09-.07.18-.11.27-6.17,14.8-20.76,24.33-36.79,24.33h-68.82c-8.4,0-15.21,6.82-15.21,15.21v-.03c0,13.6-11.02,24.62-24.61,24.62h-15.19v-12.31Z"/>
        <path class="cls-1" d="M295.49,52.11c0-6.79,5.51-12.3,12.3-12.3h12.24c8.49,0,15.19-6.94,15.27-15.43.12-13.48,11.09-24.38,24.6-24.38l104.2.02c0,.08,0,.17,0,.25-.03,13.47-11.07,24.33-24.54,24.33h-89.06c-8.4,0-15.21,6.81-15.21,15.21h0c0,13.59-11.02,24.62-24.62,24.62h-15.19v-12.31Z"/>
      </g>
      <g>
        <path class="cls-1" d="M24.06,79.89h-8.18l-4.6-9.12h-3.73v9.12H0v-27.99h11.72c1.99,0,3.69.16,5.11.49,1.41.33,2.57.84,3.46,1.55.89.71,1.54,1.63,1.94,2.75s.61,2.5.61,4.13v.94c0,1.99-.41,3.61-1.24,4.84-.83,1.23-2,2.16-3.52,2.79l5.98,10.5ZM15.29,61.21c-.03-1.26-.32-2.11-.88-2.56-.56-.44-1.57-.67-3.01-.67h-3.85v6.76h3.85c1.44,0,2.44-.22,3.01-.67.56-.44.86-1.3.88-2.55v-.32Z"/>
        <path class="cls-1" d="M70.96,51.9l-1.14,6.05h-12.58v4.72h12.3l-1.14,6.05h-11.16v5.11h13.95l-1.14,6.05h-20.21v-27.99h21.11Z"/>
        <path class="cls-1" d="M97.53,51.9h12.27c2.46,0,4.5.25,6.11.75,1.61.5,2.9,1.25,3.85,2.26.96,1.01,1.63,2.28,2.01,3.81.38,1.53.57,3.33.57,5.41v3.5c0,1.97-.2,3.71-.59,5.25-.39,1.53-1.06,2.82-2.01,3.85-.94,1.04-2.21,1.82-3.79,2.36-1.58.54-3.57.81-5.95.81h-12.46v-27.99ZM105.04,73.44h3.97c1.02,0,1.87-.09,2.56-.26.68-.17,1.24-.47,1.67-.91.43-.43.74-1.03.92-1.81.18-.77.28-1.75.28-2.93v-3.34c0-1.18-.09-2.15-.28-2.91-.18-.76-.49-1.36-.92-1.79-.43-.43-.99-.74-1.67-.91-.68-.17-1.53-.26-2.56-.26h-3.97v15.1Z"/>
        <path class="cls-1" d="M170.57,51.9l-1.14,6.05h-12.58v4.72h12.3l-1.14,6.05h-11.16v5.11h13.95l-1.14,6.05h-20.21v-27.99h21.11Z"/>
      </g>
    </g>
  </g>
</svg>