<?xml version="1.0" encoding="UTF-8"?>
<svg id="Layer_1" data-name="Layer 1" xmlns="http://www.w3.org/2000/svg" xmlns:xlink="http://www.w3.org/1999/xlink" viewBox="0 0 2000 2000">
  <defs>
    <style>
      .cls-1 {
        fill: url(#linear-gradient);
      }

      .cls-1, .cls-2, .cls-3, .cls-4 {
        stroke-width: 0px;
      }

      .cls-2 {
        fill: url(#linear-gradient-2);
      }

      .cls-3 {
        fill: url(#linear-gradient-3);
      }

      .cls-4 {
        fill: #f2f2f2;
      }
    </style>
    <linearGradient id="linear-gradient" x1="1265.62" y1="773.75" x2="1817.24" y2="773.75" gradientUnits="userSpaceOnUse">
      <stop offset="0" stop-color="#5bc2e7"/>
      <stop offset=".5" stop-color="#00a9e0"/>
      <stop offset="1" stop-color="#0077c8"/>
    </linearGradient>
    <linearGradient id="linear-gradient-2" x1="1265.61" y1="606.92" x2="1939.21" y2="606.92" xlink:href="#linear-gradient"/>
    <linearGradient id="linear-gradient-3" x1="1265.61" y1="440.09" x2="1972.22" y2="440.09" xlink:href="#linear-gradient"/>
  </defs>
  <g>
    <path class="cls-4" d="M1544.98,1180.34v328.23h-173.45c-58.5,0-105.92-47.42-105.92-105.92v-222.31h45.74v210.9c0,39.54,32.05,71.59,71.59,71.59h116.36v-260.44c0-12.4,9.66-22.04,22.09-22.04h23.59Z"/>
    <path class="cls-4" d="M1595.73,1180.34v513.84l30.17-13.3c9.55-4.21,15.57-13.58,15.58-24.25l.06-148.06h145.92c48.44,0,87.69-39.27,87.68-87.7l-.03-152.83c-.01-48.44-39.28-87.7-87.72-87.7h-191.67ZM1773.64,1462.83h-132.11l-.05-236.74h132.11c30.84,0,55.84,25,55.84,55.83l.03,125.08c0,30.84-24.99,55.83-55.82,55.83Z"/>
    <path class="cls-4" d="M1967.56,1095.56v205.78c-.01.13-.02.26-.02.39l-7.24,85.57c-.21,3.36-2.99,5.98-6.36,5.98h-22.89c-3.36,0-6.14-2.62-6.34-5.98l-7.02-85.57c0-.13-.01-.26-.01-.39v-205.78c.02-3.51,2.87-6.36,6.38-6.36h37.16c3.51,0,6.36,2.85,6.35,6.36Z"/>
    <ellipse class="cls-4" cx="1942.62" cy="1480.22" rx="29.6" ry="29.68"/>
  </g>
  <g>
    <path class="cls-4" d="M447.12,1230.09c77.34-18.07,128.53-68.14,128.53-206.8,0-215.02-125.44-217-280.18-217H27.23v702.26h165.78v-263.92s18.54-4.17,44.93-3.91c25.27.25,48.56,13.79,61.38,35.56l115.91,196.88c12.91,21.93,36.46,35.39,61.91,35.39h133.93l-163.94-278.46ZM295.46,1113.67c-84.43,0-102.45,3.63-102.45,3.63v-184.35h102.45c66.96,0,121.2,0,121.2,90.34s-54.24,90.38-121.2,90.38Z"/>
    <path class="cls-4" d="M1143.84,806.31l-12.68,67.98c-6.35,34.01-36.03,58.66-70.62,58.66h-165.88c-60.86,0-95.36,25.28-95.36,67.19,0,149.9,364.17,8.75,364.17,284.21,0,154.26-64.93,224.21-242.98,224.21-53.4,0-288.23,0-288.23,0l12.45-67.78c6.26-34.1,35.99-58.86,70.66-58.86h182.64c16.74,0,99.68,0,99.68-75.75,0-148.73-364.17-13.89-364.17-280.19,0-156.35,73.86-219.67,243.91-219.67,73.79,0,266.41,0,266.41,0Z"/>
  </g>
  <g>
    <path class="cls-1" d="M1432.5,805.59c0,56.98-46.19,103.16-103.16,103.16h-63.72v-51.61c0-28.47,23.08-51.55,51.55-51.55h51.54c35.19,0,63.72-28.53,63.72-63.72,0-56.94,46.16-103.11,103.11-103.11l281.69.11c-76.04,64.26-174.34,103-281.69,103h-39.38c-35.19,0-63.72,28.53-63.72,63.73h.07Z"/>
    <path class="cls-2" d="M1265.62,690.31c0-28.47,23.08-51.55,51.55-51.55h51.28c35.57,0,63.67-29.1,63.99-64.68.51-56.51,46.48-102.16,103.1-102.16l403.67.1c-.15.37-.31.74-.46,1.12-25.86,62.01-86.99,101.95-154.18,101.96l-288.41.04c-35.19,0-63.72,28.53-63.72,63.72v-.11c0,56.98-46.18,103.16-103.15,103.16h-63.68v-51.61Z"/>
    <path class="cls-3" d="M1265.62,523.48c0-28.47,23.08-51.55,51.55-51.55h51.28c35.57,0,63.67-29.1,63.99-64.68.51-56.51,46.48-102.16,103.1-102.16l436.67.09c0,.35,0,.71,0,1.06-.13,56.45-46.38,101.95-102.83,101.95h-373.23c-35.19,0-63.72,28.53-63.72,63.72h0c0,56.98-46.19,103.16-103.16,103.16h-63.68v-51.61Z"/>
  </g>
  <g>
    <path class="cls-4" d="M128.07,639.89h-34.27l-19.28-38.22h-15.65v38.22h-31.64v-117.3h49.1c8.35,0,15.48.68,21.42,2.06,5.93,1.37,10.75,3.54,14.49,6.5,3.73,2.96,6.45,6.81,8.15,11.53,1.7,4.72,2.56,10.48,2.56,17.3v3.95c0,8.35-1.73,15.11-5.19,20.27-3.46,5.16-8.38,9.05-14.75,11.69l25.04,43.99ZM91.32,561.64c-.11-5.27-1.34-8.84-3.7-10.71-2.36-1.86-6.57-2.79-12.6-2.79h-16.14v28.33h16.14c6.03,0,10.24-.93,12.6-2.8,2.36-1.86,3.59-5.43,3.7-10.7v-1.33Z"/>
    <path class="cls-4" d="M324.61,522.59l-4.77,25.37h-52.72v19.78h51.56l-4.79,25.37h-46.78v21.42h58.48l-4.79,25.37h-84.68v-117.3h88.47Z"/>
    <path class="cls-4" d="M435.97,522.59h51.4c10.32,0,18.86,1.05,25.62,3.12,6.76,2.09,12.13,5.26,16.14,9.48,4.01,4.22,6.81,9.56,8.41,15.98,1.6,6.42,2.39,13.97,2.39,22.66v14.65c0,8.25-.82,15.57-2.47,22-1.65,6.42-4.45,11.8-8.41,16.14-3.96,4.34-9.25,7.63-15.9,9.88-6.64,2.25-14.96,3.38-24.95,3.38h-52.23v-117.3ZM467.43,612.88h16.64c4.29,0,7.86-.36,10.71-1.07,2.86-.71,5.19-1.98,7-3.79,1.82-1.81,3.11-4.33,3.87-7.58.76-3.24,1.15-7.33,1.15-12.27v-14.01c0-4.95-.39-9.01-1.15-12.19-.76-3.19-2.05-5.68-3.87-7.49-1.81-1.81-4.14-3.08-7-3.79-2.86-.71-6.42-1.07-10.71-1.07h-16.64v63.27Z"/>
    <path class="cls-4" d="M742.08,522.59l-4.77,25.37h-52.72v19.78h51.56l-4.79,25.37h-46.78v21.42h58.48l-4.79,25.37h-84.68v-117.3h88.47Z"/>
  </g>
</svg>